<?xml version="1.0" standalone="no"?>
<!DOCTYPE svg PUBLIC "-//W3C//DTD SVG 20010904//EN"
 "http://www.w3.org/TR/2001/REC-SVG-20010904/DTD/svg10.dtd">
<svg version="1.0" xmlns="http://www.w3.org/2000/svg"
 width="326.000000pt" height="284.000000pt" viewBox="0 0 326.000000 284.000000"
 preserveAspectRatio="xMidYMid meet">

<g transform="translate(0.000000,284.000000) scale(0.100000,-0.100000)"
fill="#000000" stroke="none">
<path d="M1372 2764 c-17 -12 -20 -19 -12 -32 25 -45 26 -45 59 -28 31 16 31
17 16 46 -18 34 -31 37 -63 14z"/>
<path d="M1298 2722 c-25 -16 -25 -19 -12 -45 8 -15 19 -27 25 -27 9 0 47 17
57 25 6 5 -28 65 -36 65 -4 0 -19 -8 -34 -18z"/>
<path d="M1428 2692 c-33 -20 -34 -29 -9 -61 17 -23 19 -23 44 -6 15 9 27 19
27 22 0 6 -30 63 -33 62 -1 0 -14 -8 -29 -17z"/>
<path d="M1100 2682 c0 -9 90 -163 189 -324 22 -37 41 -70 41 -73 0 -3 -11 -5
-24 -5 -20 0 -33 14 -67 75 l-43 75 -144 0 -144 0 32 -57 c18 -32 49 -86 68
-120 l36 -63 88 0 c78 0 88 -2 102 -22 9 -12 16 -26 16 -30 0 -5 -106 -8 -235
-8 -129 0 -235 -2 -235 -5 0 -2 14 -27 30 -55 16 -28 30 -55 30 -61 0 -6 -13
-30 -30 -54 -16 -24 -30 -47 -30 -51 0 -4 106 -4 235 -1 129 4 235 3 235 -1 0
-5 -6 -16 -12 -25 -10 -13 -33 -17 -101 -19 l-89 -3 -69 -119 c-38 -65 -69
-120 -69 -122 0 -2 62 -4 138 -4 l138 0 43 75 c38 67 46 75 72 75 16 0 29 -3
29 -6 0 -6 -13 -29 -149 -254 -44 -74 -81 -138 -81 -142 0 -5 29 -8 65 -8 l65
0 32 -51 c38 -62 24 -76 163 166 55 96 103 175 107 175 4 0 12 -9 18 -21 10
-17 5 -31 -29 -89 -23 -38 -41 -73 -41 -79 0 -14 133 -251 140 -251 9 0 145
253 142 263 -2 6 -22 41 -44 79 -37 63 -40 71 -25 85 14 15 18 12 42 -28 33
-57 126 -218 168 -291 17 -32 35 -58 39 -58 8 0 58 89 57 104 0 18 -175 310
-187 314 -6 2 -14 -8 -18 -22 -3 -14 -9 -26 -13 -26 -6 0 -138 224 -150 253
-2 6 4 14 13 19 29 16 13 78 -45 170 -37 58 -72 82 -98 69 -16 -9 -27 4 -90
108 -39 64 -71 121 -71 124 0 4 16 7 35 7 l36 0 -17 33 c-9 17 -48 87 -87 155
l-70 122 -53 0 c-29 0 -59 3 -68 6 -9 3 -16 2 -16 -4z m464 -686 l59 -100 -20
-35 c-73 -131 -139 -241 -144 -241 -3 0 -14 16 -25 35 -18 34 -21 36 -56 30
-44 -8 -47 0 -15 46 27 40 127 209 127 215 0 2 -70 4 -156 4 l-155 0 21 39
c21 36 21 40 6 69 -9 17 -16 33 -16 35 0 3 71 4 158 3 l157 -1 59 -99z"/>
<path d="M1348 2644 c-33 -17 -33 -21 -10 -56 19 -28 25 -28 71 8 6 5 -20 64
-28 64 -3 -1 -18 -8 -33 -16z"/>
<path d="M1472 2609 c-34 -22 -34 -19 4 -77 3 -5 64 27 64 33 0 2 -8 18 -18
34 l-18 30 -32 -20z"/>
<path d="M1388 2561 l-27 -17 20 -32 c22 -34 19 -34 77 4 6 4 -28 64 -36 63
-4 0 -19 -8 -34 -18z"/>
<path d="M1526 2535 c-10 -8 -23 -16 -29 -18 -10 -3 18 -67 31 -67 4 0 19 8
34 18 l27 18 -21 32 c-11 18 -21 32 -21 32 -1 0 -11 -7 -21 -15z"/>
<path d="M1438 2484 c-33 -17 -33 -16 -10 -53 l18 -30 32 19 31 19 -17 31
c-20 34 -18 34 -54 14z"/>
<path d="M2362 2473 c2 -10 10 -18 18 -18 8 0 16 8 18 18 2 12 -3 17 -18 17
-15 0 -20 -5 -18 -17z"/>
<path d="M1569 2453 c-13 -9 -26 -18 -28 -19 -4 -4 20 -64 26 -64 11 0 63 31
63 38 0 4 -8 19 -18 34 -18 27 -19 27 -43 11z"/>
<path d="M2318 2444 c-38 -20 -36 -28 2 -9 17 9 30 18 30 20 0 7 -1 6 -32 -11z"/>
<path d="M1481 2401 c-22 -17 -23 -19 -7 -49 l16 -31 30 17 c34 19 36 29 14
60 -18 26 -22 27 -53 3z"/>
<path d="M2248 2404 c-38 -20 -36 -28 2 -9 17 9 30 18 30 20 0 7 -1 6 -32 -11z"/>
<path d="M1615 2373 c-16 -9 -32 -17 -33 -19 -5 -4 31 -64 38 -64 3 0 17 8 32
18 26 17 26 18 10 49 -17 31 -17 31 -47 16z"/>
<path d="M1912 2318 l-122 -71 25 -33 c15 -19 36 -57 48 -84 l22 -50 127 73
c136 76 150 92 141 154 -4 27 -1 34 26 47 17 9 31 19 31 22 0 3 -15 -3 -33
-14 l-33 -19 -28 23 c-15 13 -39 24 -54 23 -15 0 -82 -32 -150 -71z"/>
<path d="M1527 2324 c-26 -14 -27 -16 -12 -44 18 -34 31 -37 63 -14 21 14 21
17 7 45 -18 33 -20 34 -58 13z"/>
<path d="M1679 2238 l-35 -21 37 -35 c44 -39 99 -142 99 -184 0 -15 2 -28 5
-28 3 0 23 11 45 25 33 21 40 31 40 58 0 69 -92 208 -136 207 -11 -1 -35 -10
-55 -22z"/>
<path d="M1589 2183 c-13 -9 -26 -18 -28 -19 -2 -2 17 -26 42 -54 42 -46 87
-138 87 -176 0 -13 4 -13 30 1 24 12 30 22 30 48 0 58 -71 181 -120 207 -12 6
-24 4 -41 -7z"/>
<path d="M1858 1925 c-27 -15 -27 -15 -10 -45 20 -35 28 -36 61 -11 24 18 24
20 8 45 -20 30 -23 30 -59 11z"/>
<path d="M1788 1884 c-32 -17 -34 -26 -12 -59 16 -24 17 -24 45 -8 33 20 35
30 11 60 -16 20 -19 21 -44 7z"/>
<path d="M1903 1843 c-21 -14 -22 -17 -7 -44 17 -34 16 -34 55 -14 29 15 29
16 14 45 -17 33 -30 36 -62 13z"/>
<path d="M1829 1802 c-26 -17 -26 -19 -12 -47 9 -17 17 -31 18 -33 3 -3 33 13
63 34 5 4 -31 64 -38 63 -3 0 -17 -8 -31 -17z"/>
<path d="M1953 1768 c-27 -13 -29 -26 -7 -56 18 -27 25 -27 54 -4 19 16 20 21
9 45 -13 29 -22 31 -56 15z"/>
<path d="M1878 1724 c-33 -17 -32 -16 -13 -55 15 -29 16 -29 45 -14 34 18 37
34 13 63 -17 20 -20 20 -45 6z"/>
<path d="M1992 1682 c-23 -18 -22 -21 14 -70 1 -2 16 4 33 13 31 15 31 16 16
45 -18 34 -31 37 -63 12z"/>
<path d="M1918 1641 l-27 -17 19 -32 c21 -35 18 -35 78 4 6 4 -28 64 -36 63
-4 0 -19 -8 -34 -18z"/>
<path d="M2043 1608 c-28 -13 -28 -25 -4 -57 18 -23 19 -24 48 -6 30 18 30 18
14 46 -17 31 -24 33 -58 17z"/>
<path d="M1968 1564 c-33 -17 -33 -18 -11 -54 16 -28 18 -28 45 -14 31 16 33
22 16 59 -13 29 -14 29 -50 9z"/>
<path d="M2093 1529 c-31 -20 -31 -20 -15 -49 20 -35 28 -36 60 -12 24 18 24
19 5 50 l-19 31 -31 -20z"/>
<path d="M2018 1484 c-32 -17 -34 -26 -12 -59 16 -24 17 -24 45 -8 33 20 35
30 11 60 -16 20 -19 21 -44 7z"/>
<path d="M553 883 l92 -228 51 -3 c35 -2 53 1 57 10 2 7 43 109 91 225 47 117
86 215 86 218 0 11 -98 4 -108 -8 -6 -7 -34 -78 -62 -158 -28 -79 -53 -151
-56 -159 -3 -8 -30 53 -59 137 -72 204 -65 193 -130 193 l-54 0 92 -227z"/>
<path d="M970 893 c-46 -120 -85 -224 -88 -231 -3 -10 8 -12 49 -10 53 3 54 3
70 48 l17 45 92 0 92 0 17 -45 c16 -45 17 -45 69 -48 28 -2 52 0 52 3 0 3 -39
107 -87 230 l-86 225 -57 0 -57 0 -83 -217z m173 25 c15 -46 27 -86 27 -90 0
-10 -120 -11 -120 -1 0 15 54 173 60 173 3 0 18 -37 33 -82z"/>
<path d="M1390 881 l0 -231 50 0 50 0 0 80 c0 65 3 82 16 87 27 10 46 -9 93
-90 l43 -77 59 0 c32 0 59 2 59 5 0 10 -83 141 -104 164 -17 20 -18 25 -6 29
30 11 68 63 75 102 8 48 -16 103 -58 134 -24 18 -46 22 -153 25 l-124 3 0
-231z m212 132 c22 -20 24 -76 2 -97 -19 -19 -53 -29 -85 -24 -21 3 -24 9 -27
57 -2 29 -1 60 2 67 8 20 85 18 108 -3z"/>
<path d="M1820 879 l0 -231 139 4 c136 3 140 4 183 33 125 87 130 295 9 379
-55 38 -92 46 -218 46 l-113 0 0 -231z m248 131 c81 -50 84 -197 6 -259 -21
-16 -41 -21 -90 -21 l-64 0 0 150 0 150 58 0 c40 0 67 -6 90 -20z"/>
<path d="M2411 1088 c-5 -13 -36 -93 -69 -178 -33 -85 -69 -179 -81 -208 l-21
-53 57 3 57 3 15 48 15 47 91 0 92 0 13 -46 c15 -53 21 -56 83 -52 l45 3 -87
225 -87 225 -57 3 c-52 3 -58 1 -66 -20z m95 -160 c15 -46 29 -89 32 -95 3
-10 -13 -13 -63 -13 -49 0 -66 3 -63 13 3 6 18 49 34 95 16 45 29 82 31 82 1
0 14 -37 29 -82z"/>
<path d="M790 430 c0 -127 4 -200 10 -200 6 0 10 30 10 70 0 49 4 70 12 70 7
0 46 -33 87 -73 41 -39 65 -58 53 -42 -11 17 -41 50 -66 75 l-46 44 62 65 63
65 -63 -53 c-34 -29 -65 -57 -68 -62 -3 -5 -12 -9 -20 -9 -11 0 -14 23 -14
125 0 77 -4 125 -10 125 -6 0 -10 -73 -10 -200z"/>
<path d="M1542 548 c-2 -54 -3 -57 -29 -61 l-28 -4 28 -2 27 -1 0 -113 c0 -75
4 -117 12 -125 14 -14 67 -16 87 -3 10 6 0 8 -27 4 -38 -5 -42 -4 -52 22 -6
16 -9 69 -8 119 l3 91 45 6 45 5 -45 5 -45 4 -6 55 -6 55 -1 -57z"/>
<path d="M530 480 c-11 -11 -20 -33 -20 -50 0 -33 21 -50 85 -70 53 -17 65
-27 65 -60 0 -41 -31 -63 -82 -58 -24 3 -52 8 -63 13 l-20 8 20 -16 c25 -21
104 -22 132 -2 28 20 38 62 19 89 -8 13 -41 32 -75 45 -64 23 -80 45 -61 81
17 32 63 38 125 15 20 -7 20 -6 1 9 -29 23 -101 21 -126 -4z"/>
<path d="M1110 369 l57 -133 -23 -53 c-13 -29 -20 -53 -15 -53 5 0 27 42 49
92 102 233 120 278 113 278 -5 0 -32 -54 -61 -120 -29 -67 -54 -119 -56 -117
-2 2 -25 54 -51 117 -27 62 -53 115 -60 117 -6 2 15 -56 47 -128z"/>
<path d="M1768 471 c-32 -28 -33 -32 -33 -106 0 -74 1 -78 33 -106 25 -23 42
-29 77 -29 50 0 95 14 95 30 0 7 -9 5 -22 -4 -32 -23 -100 -20 -131 4 -23 19
-47 72 -47 108 0 9 28 12 105 12 l105 0 0 31 c0 20 -10 40 -29 60 -42 41 -107
41 -153 0z m136 -3 c14 -13 28 -35 32 -50 l6 -28 -96 0 c-91 0 -96 1 -96 21 0
11 13 34 29 50 37 37 88 39 125 7z"/>
<path d="M2094 490 c-22 -9 -42 -30 -27 -30 4 0 17 7 27 15 11 8 35 15 53 15
46 0 73 -30 73 -79 0 -40 0 -40 -42 -44 l-43 -4 43 -1 c41 -2 42 -2 42 -39 0
-20 -8 -46 -17 -57 -17 -20 -17 -20 0 -7 14 11 17 11 17 -2 0 -9 5 -19 11 -23
8 -4 10 28 7 111 -3 109 -5 118 -27 136 -24 20 -80 24 -117 9z"/>
<path d="M2361 368 c0 -86 3 -138 9 -138 6 0 10 42 10 107 0 96 2 109 23 132
19 22 19 23 1 8 -27 -22 -32 -22 -37 6 -2 12 -5 -40 -6 -115z"/>
<path d="M2457 493 c53 -7 63 -32 63 -155 0 -65 4 -108 10 -108 6 0 10 38 10
94 0 52 3 103 7 113 3 10 2 15 -2 11 -5 -5 -16 6 -26 22 -16 25 -24 30 -56 28
-37 -1 -37 -1 -6 -5z"/>
<path d="M2569 479 l-24 -21 25 16 c34 22 76 20 100 -4 18 -18 20 -33 20 -130
0 -72 4 -110 11 -110 7 0 10 37 7 116 -3 108 -5 117 -27 135 -31 25 -83 24
-112 -2z"/>
<path d="M2079 345 c-32 -17 -42 -50 -26 -85 10 -21 19 -25 62 -26 l50 -2 -45
7 c-36 5 -46 11 -54 32 -12 36 -2 57 36 74 18 8 26 14 18 14 -8 0 -27 -6 -41
-14z"/>
</g>
</svg>
